<?xml version="1.0" encoding="UTF-8" standalone="no"?>
<svg xmlns="http://www.w3.org/2000/svg" height="100" width="100" viewBox="0 0 100 100" preserveAspectRatio="xMidYMid meet" version="1.0">
	<path
     id="hair"
     d="M84.07 15.52C82.45 16.59 79.72 18.05 78.59 18.45C78.08 18.63 78.1 18.61 78.73 18.11C80.47 16.79 82.73 14.22 84.52 11.51C86.13 9.1 86.94 7.57 86.6 7.57C86.56 7.57 85.24 8.23 83.63 9.02C81.8 9.95 79.56 10.88 77.43 11.59C70.01 14.04 64.35 15.03 48.08 16.77C29.85 18.73 23.6 20.03 17.41 23.22C11.69 26.14 8.59 29.98 7.01 36.03C6.61 37.59 6.49 38.56 6.41 41.39C6.29 45.32 6.47 47.18 7.38 52.03C7.42 52.26 7.63 53.4 8.01 55.45L9.67 55.39L11.36 55.33C11.57 54.29 11.69 53.71 11.71 53.59C12.92 47.64 17.11 44.36 24.88 43.29C27.53 42.93 29.51 42.81 38.49 42.58C42.4 42.46 46.81 42.28 48.28 42.16C55.83 41.59 63.03 39.87 67.83 37.45C68.74 37 69.5 36.64 69.53 36.68C69.55 36.72 69.79 37.14 70.03 37.63C71.28 40.12 72.8 41.78 76.71 44.95C81.24 48.61 82.59 50.39 83.46 53.85C83.48 53.95 83.61 54.44 83.83 55.33C84.81 55.32 85.35 55.31 85.45 55.31C86.62 55.29 87.15 55.21 87.37 54.99C87.55 54.8 87.77 53.87 87.97 52.44C88.3 49.69 88.22 47.22 87.49 40.7C86.82 34.47 86.86 34.19 90.08 24.92C91.82 19.91 92.49 17.46 92.79 14.99C93.13 12.3 92.75 7.36 92.22 7.38C92.14 7.39 91.54 8.11 90.89 8.98C89.29 11.13 86.13 14.16 84.07 15.52Z"
     fill="#000000" />
	<path
     id="spects"
     d="M54.76 58.87C52.67 59.84 50.53 62.33 49.05 65.56C49.01 65.65 48.8 66.09 48.43 66.88C47.85 65.74 47.53 65.11 47.47 64.98C45.53 61.21 43.79 59.39 41.37 58.64C40.17 58.26 39.59 58.24 26.35 58.24C15.31 58.24 12.38 58.3 11.57 58.52C7.4 59.62 4.69 63.4 5.36 67.18C5.66 68.84 8.43 79.87 9.06 81.87C10.33 85.93 12.21 87.92 15.59 88.79C16.52 89.03 18.55 89.09 27.22 89.09C33.44 89.09 38.21 89.01 38.94 88.89C41.24 88.52 42.74 87.47 44.2 85.25C44.97 84.09 52.25 70.84 53.87 67.63C54.49 66.43 55.26 65.12 55.61 64.71C56.86 63.2 55.95 63.28 70.42 63.28C84.31 63.28 83.97 63.26 85.38 64.29C86.58 65.18 86.58 65.38 85.36 70.52C83.3 79.12 82.76 80.88 81.58 82.6C80.61 83.99 80.97 83.95 69.18 83.95C68.47 83.95 64.95 83.95 58.62 83.95C58.22 83.68 57.99 83.52 57.95 83.49C57.21 83 57.1 82.82 54.01 77.24C52.86 75.17 51.88 73.49 51.8 73.47C51.72 73.47 51.12 74.46 50.45 75.68C49.64 77.17 49.23 78.11 49.23 78.57C49.23 79.44 51.48 84.03 52.71 85.65C53.68 86.93 55.14 88.06 56.58 88.64C57.39 88.97 58.44 88.99 69.44 88.99C70.23 88.99 74.22 88.99 81.4 88.99C82.21 88.61 82.66 88.4 82.74 88.36C84.41 87.57 85.73 86.24 86.68 84.42C87.65 82.54 88.01 81.38 89.84 74.02C91.8 66.23 91.9 65.1 90.83 62.95C89.78 60.81 87.63 59.15 85.06 58.5C84.21 58.28 81.7 58.2 73.49 58.14C67.74 58.12 61.41 58.14 59.45 58.22C56.15 58.34 55.81 58.38 54.76 58.87ZM41.22 64.51C41.91 65.24 45.11 71.19 45.25 71.98C45.33 72.46 44.97 73.31 43.47 76.14C40.64 81.48 39.71 83 38.98 83.51C38.94 83.54 38.71 83.69 38.31 83.95C31.76 83.92 28.12 83.91 27.39 83.91C16.77 83.85 16.46 83.83 15.9 83.45C15.09 82.86 13.77 80.03 13.08 77.42C12.07 73.57 10.31 66.29 10.31 65.99C10.31 65.32 11 64.33 11.77 63.92C12.52 63.52 12.94 63.48 17.53 63.36C20.25 63.3 26.31 63.26 30.97 63.26C38.51 63.28 39.54 63.32 40.07 63.62C40.41 63.8 40.9 64.19 41.22 64.51Z"
     fill="#c02f2f" />
	<path
     id="letterJ"
     d="M25.08 74.88C24.72 74.8 24.49 74.82 24.13 74.82C23.27 74.82 22.41 75.31 21.92 76C21.78 76.21 21.64 76.51 21.56 76.75C21.47 77 21.38 77.52 21.38 77.78C21.38 77.78 21.38 78.24 21.38 78.24C21.38 78.41 21.43 79.04 21.49 79.17C21.62 79.45 22.12 79.88 22.38 80.07C23.22 80.71 24.23 81.1 25.29 81.18C25.29 81.18 25.54 81.2 25.54 81.2C26.21 81.21 26.88 81.15 27.52 80.98C28 80.85 28.44 80.66 28.86 80.41C29.2 80.2 29.41 80.01 29.68 79.73C29.68 79.73 29.96 79.45 29.96 79.45C30.51 78.81 30.83 77.97 30.95 77.14C30.97 76.96 31 76.79 31 76.62C31 76.62 31 75.46 31 75.46C31 75.46 31 73.25 31 73.25C31 73.25 31 69.52 31 69.52C31 69.31 30.94 69.12 30.85 68.93C30.46 68.15 29.5 67.9 28.71 67.79C28.71 67.79 28.14 67.75 28.14 67.75C28.14 67.75 27.78 67.77 27.78 67.77C27.78 67.77 27.52 67.77 27.52 67.77C26.9 67.84 26.38 67.97 25.8 68.22C25.65 68.29 25.21 68.51 25.13 68.63C25.1 68.68 25.11 68.77 25.11 68.83C25.11 68.83 25.11 74.23 25.11 74.23C25.11 74.29 25.1 74.39 25.15 74.44C25.19 74.47 25.47 74.53 25.54 74.55C25.82 74.64 26.02 74.73 26.26 74.89C26.7 75.17 27.06 75.53 27.29 76C27.37 76.17 27.45 76.43 27.29 76.58C27.23 76.63 27.16 76.65 27.09 76.67C26.78 75.78 26 75.1 25.08 74.88Z"
     fill="#000000" />
	<path
     id="letterP"
     d="m 69.97,77.456378 c 0.08827,-0.0017 0.14,0.0036 0.19,0.01362 l 0.52,0.13 0.9,0.15 h 0.25 l 0.25,0.03 0.3,-0.03 h 0.27 l 0.85,-0.1 c 1.17,-0.2 2.18,-0.67 2.96,-1.59 0.57,-0.68 0.96,-1.76 0.97,-2.65 v -0.85 c 0,-0.7 -0.31,-1.61 -0.67,-2.21 -0.12,-0.2 -0.27,-0.37 -0.42,-0.55 -0.8,-0.92 -1.81,-1.42 -2.98,-1.68 -0.34,-0.08 -0.89,-0.17 -1.23,-0.17 L 71.64,67.92 H 71.15 L 70.63,67.95 70.08,68 c -0.9,0.09 -1.52,0.22 -2.37,0.52 -0.34,0.12 -0.79,0.33 -1.04,0.57 -0.1,0.1 -0.2,0.2 -0.25,0.33 -0.03,0.08 -0.02,0.16 -0.02,0.25 v 8.87 c 0,0.19 0.02,0.34 0.08,0.52 0.08,0.26 0.19,0.41 0.38,0.6 0.12,0.12 0.21,0.21 0.36,0.3 0.41,0.26 1.14,0.44 1.63,0.44 h 0.6 c 0.384182,-0.122297 0.349507,-0.05843 0.515867,-0.518061 0.01622,-0.880858 0.01192,-1.647673 0.0041,-2.425561 z M 71.88,72.08 c 0.4,0.07 0.31,0.76 0.31,1.05 0,0.21 0.02,0.51 -0.09,0.69 -0.11,0.18 -0.37,0.19 -0.43,0.12 -0.04,-0.05 -0.03,-0.15 -0.03,-0.21 v -0.81 c 0,-0.27 0.02,-0.56 -0.03,-0.82 0.1,-0.02 0.18,-0.04 0.27,-0.02 z"
     fill="#000000" />
</svg>
