<svg version="1.1" viewBox="0.0 0.0 200.0 40.0" fill="none" stroke="none" stroke-linecap="square" stroke-miterlimit="10" xmlns:xlink="http://www.w3.org/1999/xlink" xmlns="http://www.w3.org/2000/svg">
	<clipPath id="p.0">
		<path d="m0 0l200.0 0l0 40.0l-200.0 0l0 -40.0z" clip-rule="nonzero"/>
	</clipPath>
	<g clip-path="url(#p.0)">
		<path fill="#000000" fill-opacity="0.0" d="m0 0l200.0 0l0 40.0l-200.0 0z" fill-rule="evenodd"/>
		<path fill="#000000" d="m5.7513294 0.5951021l0 29.378893c0 0.8173561 -0.0791831 1.4865685 -0.23754454 2.007635c-0.15836191 0.5159588 -0.411232 0.90675545 -0.75861025 1.1723957c-0.34226704 0.26564026 -0.81224895 0.44699097 -1.4099414 0.54405594c-0.59258556 0.09194946 -1.3128817 0.13792801 -2.160889 0.13792801l0 5.8849716l4.091896 0c2.3243613 0 4.130209 -0.34482193 5.417547 -1.0344658c1.2873383 -0.6896477 2.1889849 -1.7317772 2.7049427 -3.1263924c0.5210657 -1.399723 0.7815981 -3.1366081 0.7815981 -5.210655l0 -29.754366z" fill-rule="evenodd"/>
		<path fill="#000000" d="m28.251047 16.510586c0.40867805 0 0.7611637 0.079179764 1.057457 0.2375431c0.30139923 0.15325546 0.53894424 0.43422318 0.71263313 0.84290123c0.17368889 0.40867805 0.26053238 0.97571945 0.26053238 1.7011242l0 2.72793l-3.8620148 0l0 -2.3064804c0 -0.8480091 0.07662773 -1.49934 0.2298832 -1.9539948c0.15836334 -0.4546547 0.37036514 -0.77648926 0.6360054 -0.9655037c0.27075005 -0.18901443 0.5925846 -0.28351974 0.9655037 -0.28351974zm0.05363846 -5.463525c-1.946331 0 -3.6346855 0.35503864 -5.0650616 1.0651188c-1.4252663 0.7049713 -2.5159302 1.7317762 -3.271984 3.0804167c-0.75094795 1.3486385 -1.126421 2.9961262 -1.126421 4.942457l0 9.984533c0 1.9105759 0.37547302 3.5503998 1.126421 4.9194717c0.7560539 1.3639641 1.8390541 2.3984337 3.2489967 3.103405c1.4099407 0.7049675 3.105957 1.0574532 5.088049 1.0574532c2.8249931 0 5.0369663 -0.6973076 6.6359234 -2.0919228c1.5989532 -1.3946152 2.3984337 -3.4737701 2.3984337 -6.237459l0 -2.6359787l-7.057373 0l0 2.8735218c0 0.6589947 -0.08684349 1.1775055 -0.26053238 1.5555344c-0.17368889 0.37291718 -0.4112339 0.64622116 -0.71263313 0.81991196c-0.29629326 0.17368698 -0.6308994 0.26053238 -1.0038185 0.26053238c-0.37802696 0 -0.7100773 -0.094509125 -0.9961529 -0.28351974c-0.2809677 -0.18901443 -0.50063324 -0.5031853 -0.6589947 -0.9425163c-0.15325546 -0.43933105 -0.2298832 -1.0038166 -0.2298832 -1.6934624l0 -5.225979l10.919388 0l0 -5.463526c0 -1.9769821 -0.33716202 -3.6397934 -1.0114822 -4.988434c-0.6743202 -1.3486404 -1.6781349 -2.3677826 -3.0114517 -3.0574284c-1.333313 -0.6947546 -3.003788 -1.0421305 -5.011423 -1.0421305z" fill-rule="evenodd"/>
		<path fill="#000000" d="m55.512566 11.001084c-1.1289749 0 -2.2349625 0.20433998 -3.3179588 0.61301804c-1.0830002 0.40867805 -2.1276855 1.0983238 -3.134056 2.0689363l0 -2.1608887l-7.5324593 0l0 27.21034l7.5324593 0l0 -21.470959c0.43933105 -0.3116169 0.886322 -0.5542717 1.3409767 -0.7279587c0.45976257 -0.17368889 0.8607788 -0.26053238 1.2030487 -0.26053238c0.5363922 0 0.94506836 0.16602516 1.2260361 0.4980774c0.2809677 0.32694244 0.42144775 0.86844254 0.42144775 1.6244984l0 20.336874l7.44051 0l0 -21.14146c0 -0.061302185 0 -0.11494255 0 -0.16091728c0 -0.04597664 0 -0.10216904 0 -0.16858101c0.43932724 -0.3116169 0.89398575 -0.5542717 1.3639641 -0.7279587c0.46998215 -0.17368889 0.86333466 -0.26053238 1.1800613 -0.26053238c0.5312805 0 0.9297409 0.16602516 1.1953812 0.4980774c0.27075195 0.32694244 0.40612793 0.86844254 0.40612793 1.6244984l0 20.336874l7.532463 0l0 -21.14146c0 -1.3792915 -0.21966553 -2.561905 -0.6589966 -3.547843c-0.43933105 -0.991045 -1.0523453 -1.7445459 -1.8390579 -2.2605047c-0.786705 -0.52106476 -1.7113419 -0.7815981 -2.773903 -0.7815981c-1.1953888 0 -2.38311 0.24520779 -3.5631676 0.7356224c-1.1749535 0.48530483 -2.2962646 1.3230963 -3.3639374 2.5133743c-0.40867996 -1.0676727 -1.0140343 -1.8748131 -1.8160667 -2.421422c-0.7969246 -0.55171585 -1.7445488 -0.82757473 -2.8428726 -0.82757473z" fill-rule="evenodd"/>
		<path fill="#000000" d="m76.97916 1.5835937l0 5.325595l7.7240295 0l0 -5.325595zm0.04597473 9.938557l0 27.21034l7.678055 0l0 -27.21034z" fill-rule="evenodd"/>
		<path fill="#000000" d="m103.677315 11.047061c-1.1953888 0 -2.3345795 0.2835207 -3.4175797 0.85056305c-1.0830002 0.5670414 -2.1251297 1.3511934 -3.1263885 2.352457l0 -2.727931l-7.678055 0l0 27.21034l7.678055 0l0 -21.27939c0.43933105 -0.31672478 0.8710022 -0.5593796 1.2949982 -0.7279587c0.42401123 -0.17368889 0.7918167 -0.26053238 1.1034317 -0.26053238c0.5976944 0 1.0063782 0.17368889 1.2260361 0.52106476c0.21966553 0.3422699 0.3294983 0.8428993 0.3294983 1.501894l0 20.244923l7.6244125 0l0 -21.325367c0 -1.2260361 -0.18901062 -2.3166962 -0.5670395 -3.271984c-0.37291718 -0.9603939 -0.9297409 -1.7138948 -1.6704712 -2.2605038c-0.7356262 -0.5517168 -1.667923 -0.82757473 -2.796898 -0.82757473z" fill-rule="evenodd"/>
		<path fill="#c02f2f" d="m127.663025 7.492044c2.7158813 0 4.523636 0.08486891 5.423279 0.2546072c1.2221375 0.22065973 2.2321014 0.7723088 3.029892 1.6549478c0.7977905 0.882638 1.1966858 2.0029106 1.1966858 3.360816c0 1.1032982 -0.28573608 2.0708055 -0.857193 2.902523c-0.56581116 0.83171654 -1.3494568 1.4427738 -2.350937 1.8331718c-1.0014801 0.39039803 -2.9874725 0.5855961 -5.957962 0.5855961l-4.1247406 0l0 -10.591661zm-11.177544 -6.3142605l0 37.325428l7.5365677 0l0 -14.079784l4.9140472 0c3.4118195 0 6.0173645 -0.17822456 7.816635 -0.5346756c1.3239899 -0.28855324 2.625351 -0.8769798 3.9040833 -1.765276c1.284378 -0.8939533 2.3424377 -2.121727 3.174179 -3.683319c0.83174133 -1.5615921 1.2476044 -3.48812 1.2476044 -5.779585c0 -2.970419 -0.721405 -5.392016 -2.164215 -7.264795c-1.44281 -1.8784363 -3.2335968 -3.0977218 -5.372345 -3.657858c-1.3918915 -0.37342405 -4.379364 -0.5601361 -8.962402 -0.5601361z" fill-rule="evenodd"/>
		<path fill="#c02f2f" d="m163.71632 10.8528595c-1.1542511 0 -2.1868439 0.28855515 -3.0977936 0.86566544c-0.90530396 0.57710934 -1.92659 1.7737637 -3.063858 3.589962l0 -3.8445692l-6.6454163 0l0 27.039295l7.154648 0l0 -8.35112c0 -4.599905 0.19802856 -7.6212444 0.59410095 -9.06402c0.40171814 -1.4427738 0.95054626 -2.43857 1.6464996 -2.9873905c0.6959381 -0.5544777 1.5446472 -0.83171844 2.5461273 -0.83171844c1.0354309 0 2.1557312 0.39039803 3.3609009 1.1711941l2.215149 -6.237879c-1.5107117 -0.8996124 -3.0808258 -1.3494186 -4.7103577 -1.3494186z" fill-rule="evenodd"/>
		<path fill="#c02f2f" d="m183.80534 16.683367c1.8671722 0 3.4316254 0.71290016 4.6933746 2.1387005c1.2674103 1.4258022 1.901123 3.4626598 1.901123 6.1105747c0 2.7158108 -0.63371277 4.7866173 -1.901123 6.2124176c-1.2617493 1.4258022 -2.8262024 2.1387005 -4.6933746 2.1387005c-1.8671722 0 -3.4372864 -0.71289825 -4.7103577 -2.1387005c-1.2730713 -1.4258003 -1.9095917 -3.4796314 -1.9095917 -6.161495c0 -2.6818638 0.6365204 -4.735695 1.9095917 -6.161497c1.2730713 -1.4258003 2.8431854 -2.1387005 4.7103577 -2.1387005zm-0.025466919 -5.8305073c-2.6479797 0 -5.046997 0.58559704 -7.1970825 1.7567911c-2.1444092 1.1711931 -3.8022308 2.868575 -4.9734497 5.092145c-1.1712189 2.2235699 -1.7568359 4.5235233 -1.7568359 6.8998585c0 3.1062088 0.58561707 5.7428055 1.7568359 7.9097977c1.1712189 2.1613312 2.879959 3.8021355 5.1262207 4.922409c2.2519226 1.1202698 4.6170044 1.6804085 7.0952454 1.6804085c4.0059204 0 7.3272095 -1.3437614 9.963882 -4.0312843c2.6423187 -2.69318 3.9634857 -6.0851135 3.9634857 -10.175802c0 -4.0567436 -1.3070221 -7.4119015 -3.921051 -10.065475c-2.6140442 -2.6592312 -5.966446 -3.9888477 -10.057251 -3.9888477z" fill-rule="evenodd"/>
	</g>
</svg>